<?xml version="1.0" encoding="UTF-8"?>
<svg width="505px" height="488px" viewBox="0 0 505 488" version="1.1" xmlns="http://www.w3.org/2000/svg" xmlns:xlink="http://www.w3.org/1999/xlink">
    <!-- Generator: Sketch 54.1 (76490) - https://sketchapp.com -->
    <title>big-logo</title>
    <desc>Created with Sketch.</desc>
    <g id="Bestand---Layout" stroke="none" stroke-width="1" fill="none" fill-rule="evenodd">
        <g id="Login-white-Copy" transform="translate(-919.000000, -411.000000)" fill-rule="nonzero">
            <g id="big-logo" transform="translate(919.000000, 411.000000)">
                <path d="M362.918301,324.081934 L411.658686,324.081934 L411.658686,428.266498 C411.658686,461.042188 385.118642,487.612135 352.37984,487.612135 L59.937532,487.612135 C27.1987293,487.612135 0.658685818,461.042188 0.658685818,428.266498 L0.658685818,153.957773 C0.658685818,121.182082 27.1987293,94.6121354 59.937532,94.6121354 L182.447147,94.6121354 L182.447147,143.407437 L59.937532,143.407437 C54.1173004,143.407437 49.3990704,148.130984 49.3990704,153.957773 L49.3990704,428.266498 C49.3990704,434.093287 54.1173004,438.816833 59.937532,438.816833 L352.37984,438.816833 C358.200071,438.816833 362.918301,434.093287 362.918301,428.266498 L362.918301,324.081934 Z" id="Combined-Shape" fill="#161669"></path>
                <path d="M455.856962,234.101497 L504.658686,234.101497 L504.658686,251.250433 C504.658686,284.034996 478.085242,310.612135 445.305238,310.612135 L258.012134,310.612135 C225.23213,310.612135 198.658686,284.034996 198.658686,251.250433 L198.658686,59.9738375 C198.658686,27.1892747 225.23213,0.612135367 258.012134,0.612135367 L275.158686,0.612135367 L275.158686,48.1014971 L258.012134,48.1014971 C252.184578,48.1014971 247.46041,52.8263218 247.46041,58.6546886 L247.46041,251.250433 C247.46041,257.0788 252.184578,261.803625 258.012134,261.803625 L445.305238,261.803625 C451.132794,261.803625 455.856962,257.0788 455.856962,251.250433 L455.856962,234.101497 Z" id="Combined-Shape-Copy" fill="#369AFB" transform="translate(351.658686, 155.612135) rotate(-180.000000) translate(-351.658686, -155.612135) "></path>
                <path d="M247.402463,144.045683 L247.402463,250.247022 C247.402463,256.075723 252.121021,260.80082 257.941658,260.80082 L362.528458,260.80082 L410.658686,309.612135 L257.941658,309.612135 C225.200576,309.612135 198.658686,283.033469 198.658686,250.247022 L198.658686,94.6121354 L247.402463,144.045683 Z" id="Combined-Shape-Copy-2" fill="#369AFB" transform="translate(304.658686, 202.112135) rotate(-180.000000) translate(-304.658686, -202.112135) "></path>
                <path d="M247.402463,144.045683 L247.402463,250.247022 C247.402463,256.075723 252.121021,260.80082 257.941658,260.80082 L362.528458,260.80082 L410.658686,309.612135 L257.941658,309.612135 C225.200576,309.612135 198.658686,283.033469 198.658686,250.247022 L198.658686,94.6121354 L247.402463,144.045683 Z" id="Combined-Shape-Copy-3" fill="#161669"></path>
            </g>
        </g>
    </g>
</svg>