<?xml version="1.0" encoding="utf-8"?>
<!-- Generator: Adobe Illustrator 25.4.1, SVG Export Plug-In . SVG Version: 6.00 Build 0)  -->
<svg version="1.1" id="Logo" xmlns="http://www.w3.org/2000/svg" xmlns:xlink="http://www.w3.org/1999/xlink" x="0px" y="0px"
	 viewBox="0 0 396 41.8" style="enable-background:new 0 0 396 41.8;" xml:space="preserve">
<style type="text/css">
	.st0{fill:#FFFFFF;}
	.st1{fill:#369AFB;}
	.st2{fill:#F7FCFF;}
	.st3{fill-rule:evenodd;clip-rule:evenodd;fill:#369AFB;}
</style>
<g id="Group_6" transform="translate(0 4.051)">
	<g>
		<g id="Group_5">
			<g id="Group_4" transform="translate(1.459 0.722)">
				<g id="Group_28" transform="translate(0 0)">
					<path id="Path_8" class="st0" d="M19.3,25.9H3.1c-1.6,0-3-1.3-3.1-2.9V7.8c0-1.6,1.4-2.9,3.1-2.9h6.8v2.5H3.4
						c-0.5,0-0.9,0.4-1,0.8v14.3c0,0.5,0.5,0.9,1,0.8h15.4c0.5,0,0.9-0.4,1-0.8v-5.3h2.5v5.7C22.3,24.6,20.9,25.9,19.3,25.9
						L19.3,25.9z"/>
					<path id="Path_9" class="st1" d="M24.1,16.4h-0.9V14h0.7c0.6,0,1.1-0.5,1.1-1.2c0,0,0-0.1,0-0.1v-9c0-0.7-0.6-1.3-1.3-1.3h-9.1
						c-0.7,0-1.3,0.4-1.3,1.1V4h-2.5V3.3c0-1.8,1.5-3.3,3.4-3.3h9.9c1.8,0,3.4,1.5,3.4,3.3v9.8C27.4,14.9,25.9,16.4,24.1,16.4
						L24.1,16.4z"/>
					<path id="Path_10" class="st1" d="M13.3,7.4h5c0.9,0,1.6,0.8,1.6,1.7c0,0,0,0,0,0l0,4.8c0.5,0.5,2,1.9,2.5,2.4V8.1
						c0-1.8-1.5-3.2-3.2-3.2h-8.3C11.3,5.4,13.3,7.4,13.3,7.4L13.3,7.4z"/>
					<path id="Path_11" class="st0" d="M19.8,14H15c-0.9,0-1.7-0.7-1.7-1.6V7.4c-0.5-0.5-2-2-2.5-2.5v8.2c0,1.8,1.5,3.2,3.2,3.2h8.3
						C21.8,15.9,20.3,14.5,19.8,14L19.8,14z"/>
					<path id="Path_12" class="st0" d="M48,15.7c1.6-0.9,2.2-2.2,2.2-4.7c0-3.4-2.1-5.1-6.2-5.1h-7.5V26h7.8c4.3,0,6.4-1.9,6.4-5.7
						C50.8,17.9,49.9,16.5,48,15.7L48,15.7z M39.6,14.5V8.8h4.3c2.2,0,3.1,0.8,3.1,2.6c0,2.1-0.9,3-3,3H39.6z M47.5,20.1
						c0,2.1-1,3-3.3,3h-4.6v-5.8h4.5C46.4,17.3,47.5,18.2,47.5,20.1L47.5,20.1z"/>
					<path id="Path_13" class="st0" d="M62.1,23.2c-1.1,0.2-2.2,0.2-3.3,0.1c-2.3,0-2.4-1.1-2.4-4.3v-7.2h-3V19
						c0,4.8,0.3,6.9,4.5,6.9c1.4,0,4.2,0,4.2,0h3V11.8h-3L62.1,23.2L62.1,23.2z"/>
					<path id="Path_14" class="st0" d="M74.3,17.4c-2.7-0.4-3.1-0.7-3.1-1.6c0-1.1,0.7-1.6,2.5-1.6c1.7,0,4.9,0.2,4.9,0.2h0.2
						l0.1-2.6l-0.1,0c0,0-3.1-0.2-5.2-0.2c-1.3-0.1-2.6,0.3-3.7,0.9c-1.1,0.7-1.7,2-1.7,3.3c-0.1,1.1,0.4,2.3,1.3,2.9
						c1.2,0.7,2.5,1.1,3.9,1.2c2.5,0.4,2.9,0.6,2.9,1.6c0,1.3-0.7,1.7-2.9,1.7h-4.8l-0.1,0V26l0.1,0h0.2c0.2,0,0.7,0,1.6,0
						c1,0,2.3,0,3.2,0c3.8,0,5.7-1.5,5.7-4.4C79.4,18.9,78.2,18,74.3,17.4L74.3,17.4z"/>
					<path id="Path_15" class="st0" d="M123.1,17.4c-2.6-0.4-3.1-0.7-3.1-1.6c0-1.1,0.7-1.6,2.5-1.6c1.7,0,4.9,0.2,4.9,0.2h0.2
						l0.1-2.6l-0.1,0c0,0-3.1-0.2-5.2-0.2c-1.3-0.1-2.6,0.3-3.7,0.9c-1.1,0.7-1.7,2-1.7,3.3c-0.1,1.1,0.4,2.3,1.3,2.9
						c1.2,0.7,2.5,1.1,3.9,1.2c2.5,0.4,2.9,0.6,2.9,1.6c0,1.3-0.7,1.7-2.9,1.7h-4.8l-0.1,0V26l0.1,0h0.2c0.2,0,0.7,0,1.6,0
						c1,0,2.3,0,3.2,0c3.8,0,5.7-1.5,5.7-4.4C128.1,18.9,127,18,123.1,17.4L123.1,17.4z"/>
					<path id="Path_16" class="st0" d="M136,17.4c-2.6-0.4-3.1-0.7-3.1-1.6c0-1.1,0.7-1.6,2.5-1.6c1.7,0,4.9,0.2,4.9,0.2h0.2
						l0.1-2.6l-0.1,0c0,0-3.1-0.2-5.2-0.2c-1.3-0.1-2.6,0.3-3.7,0.9c-1.1,0.7-1.7,2-1.7,3.3c-0.1,1.1,0.4,2.3,1.3,2.9
						c1.2,0.7,2.5,1.1,3.9,1.2c2.5,0.4,2.9,0.6,2.9,1.6c0,1.3-0.7,1.7-2.9,1.7h-4.8l-0.1,0V26l0.1,0h0.2c0.2,0,0.7,0,1.6,0
						c1,0,2.3,0,3.2,0c3.8,0,5.7-1.5,5.7-4.4C141.1,18.9,140,18,136,17.4L136,17.4z"/>
					<path id="Path_17" class="st0" d="M82.1,12h3v14h-3V12z"/>
					<path id="Path_18" class="st0" d="M82.1,6.4h3v3.2h-3V6.4z"/>
					<path id="Path_19" class="st0" d="M95,12.1c-1.4,0-6.8,0.1-6.8,0.1V26h2.9V14.7c0.7,0,2.1,0,3.4,0c2.3-0.1,2.4,1.1,2.4,4.3v7h3
						v-6.7C100,14.6,99.6,12,95,12.1L95,12.1z"/>
					<path id="Path_20" class="st0" d="M108.6,11.7c-4.1,0-6.1,2.4-6.1,7.3c0,4.9,1.8,7,5.9,7.1h5.3l0.3-2.5l0-0.2l-0.2,0h-5
						c-2.2,0-3.2-1-3.2-3.3h8.9l0.2-2C114.6,13.7,112.7,11.7,108.6,11.7L108.6,11.7z M108.6,14.2c2.1,0,3,1,3,3.5h-6.1
						C105.6,15.3,106.5,14.2,108.6,14.2L108.6,14.2z"/>
					<path id="Path_21" class="st0" d="M199.8,18c0-4.3-1.9-6.4-5.9-6.4s-6.1,2.4-6.1,7.3c0,4.9,1.8,7,5.9,7.1h5.3l0.3-2.5l0-0.2
						l-0.2,0h-5c-2.2,0-3.2-1-3.2-3.3h8.9L199.8,18L199.8,18z M193.8,14.2c2.1,0,3,1,3,3.5h-6.1C190.7,15.3,191.7,14.2,193.8,14.2
						L193.8,14.2z"/>
					<path id="Path_22" class="st0" d="M153.9,23.1h-2c-1.9,0-3.1-0.5-3.7-1.6c-0.6-1-0.8-2.6-0.8-5.4c0-4.9,0.6-7.1,4.5-7.1
						c1.8,0,4.9,0,5,0l0.2,0l0.1-2.6V6.3l-0.1,0c0,0-3-0.2-5.4-0.2c-2.8,0-4.7,0.8-5.8,2.5c-1,1.6-1.5,3.9-1.5,7.5
						c0,6.3,1.2,10,7.3,10c1,0,2.3,0,3.4,0h2.1l0.1,0l0.1-2.9H157C156.9,23.1,155.3,23.1,153.9,23.1L153.9,23.1z"/>
					<path id="Path_23" class="st0" d="M164.8,11.6c-4.4,0-6.3,2.1-6.3,7.1c0,5.2,1.8,7.3,6.3,7.3c4.4,0,6.2-2.1,6.2-7.3
						C171.1,13.9,169.1,11.6,164.8,11.6z M168.1,18.7c0,3.1-0.5,4.7-3.2,4.7c-2.2,0-3.3-0.7-3.3-4.7c0-3.3,0.8-4.5,3.3-4.5
						C167.2,14.2,168.1,15.5,168.1,18.7z"/>
					<path id="Path_24" class="st0" d="M182.3,11.7c-0.1,0-0.1,0-0.2,0c-0.8-0.1-2-0.1-2.9-0.1c-4.1,0-6,2.2-6,7.2
						c0,5,1.6,7.2,5.3,7.2h6.7V6.5h-2.9L182.3,11.7L182.3,11.7z M182.1,14.3L182.1,14.3c0.1,0,0.2,0,0.2,0v8.9
						c-1.1,0.1-2.3,0.1-3.4,0.1c-1.4,0-2.7-0.6-2.7-4.5c0-3.3,0.9-4.6,3.1-4.6C180.2,14.2,181.3,14.2,182.1,14.3L182.1,14.3z"/>
				</g>
			</g>
		</g>
	</g>
</g>
<g id="Group_11" transform="translate(222.265)">
	<g id="Group_7" transform="translate(23.25 9.391)">
		<path id="Path_28" class="st2" d="M0,21.1V0.9h4v20.1H0z"/>
		<path id="Path_29" class="st2" d="M6.5,4.6V0.9h14.7v3.6h-5.3v16.5h-4V4.6H6.5z"/>
		<path id="Path_30" class="st2" d="M34.6,9.7v11.4h-3.9V9.7h-1.6V6.3h1.6V5.6c0-2.1,0.3-3.6,0.9-4.4c0.9-0.9,2.1-1.4,3.3-1.2
			c0.9,0,1.8,0.1,2.7,0.3l0.6,0.1l-0.1,3.2c-0.9,0-1.6-0.1-2.2-0.1c-0.4-0.1-0.9,0.1-1.2,0.5c-0.2,0.5-0.3,1.1-0.3,1.6v0.6h3.5v3.4
			L34.6,9.7z"/>
		<path id="Path_31" class="st2" d="M41.2,8c1-1.4,2.8-2,5.2-2s4.2,0.7,5.2,2c1.1,1.7,1.7,3.7,1.6,5.7c0,5.2-2.2,7.8-6.7,7.8
			s-6.7-2.6-6.7-7.8C39.6,11.6,40.1,9.6,41.2,8z M44.3,17c0.5,0.7,1.3,1.2,2.2,1.1c0.9,0.1,1.7-0.3,2.2-1.1c0.5-1.1,0.7-2.2,0.6-3.3
			c0.1-1.1-0.1-2.3-0.6-3.3c-0.5-0.7-1.3-1.1-2.2-1c-0.9-0.1-1.7,0.3-2.2,1c-0.5,1-0.7,2.2-0.6,3.3C43.6,14.8,43.8,16,44.3,17z"/>
		<path id="Path_32" class="st2" d="M56,21.1V6.3h3.9v1.6c1.4-0.9,3-1.6,4.7-1.9v4c-1.6,0.3-2.9,0.7-4.1,1l-0.6,0.2v9.9L56,21.1z"/>
		<path id="Path_33" class="st2" d="M78.2,9.7v11.4h-3.9V9.7h-1.6V6.3h1.6V5.6c0-2.1,0.3-3.6,0.9-4.4C76,0.3,77.3-0.1,78.5,0
			c0.9,0,1.8,0.1,2.7,0.3l0.6,0.1l-0.1,3.2c-0.9,0-1.6-0.1-2.2-0.1c-0.4-0.1-0.9,0.1-1.2,0.5c-0.2,0.5-0.3,1.1-0.3,1.6v0.6h3.5v3.4
			L78.2,9.7z"/>
		<path id="Path_34" class="st2" d="M92.7,6.3h3.9v14.8h-3.9v-0.8c-1.1,0.7-2.4,1.1-3.7,1.2c-2,0-3.4-0.6-4.1-1.7s-1.1-3-1.1-5.7
			V6.3h3.9v7.8c-0.1,1,0.1,2,0.4,3c0.2,0.5,0.8,0.8,1.7,0.8c0.8,0,1.7-0.1,2.4-0.4l0.4-0.1L92.7,6.3z"/>
		<path id="Path_35" class="st2" d="M108.4,9.7h-3.6v6.1c0,0.6,0,1,0,1.3c0,0.2,0.1,0.5,0.3,0.6c0.2,0.2,0.6,0.3,0.9,0.3l2.2-0.1
			l0.2,3.2c-1,0.3-2,0.4-3,0.4c-1.8,0-3-0.4-3.6-1.2c-0.6-0.8-1-2.3-1-4.4V9.7h-1.7V6.3h1.7V2.2h3.9v4.1h3.6V9.7z"/>
		<path id="Path_36" class="st2" d="M119.7,6.3h3.9v14.8h-3.9v-0.8c-1.1,0.7-2.4,1.1-3.7,1.2c-2,0-3.4-0.6-4.1-1.7
			c-0.7-1.1-1.1-3-1.1-5.7V6.3h3.9v7.8c-0.1,1,0.1,2,0.4,3c0.2,0.5,0.8,0.8,1.7,0.8c0.8,0,1.7-0.1,2.4-0.4l0.4-0.1L119.7,6.3z"/>
		<path id="Path_37" class="st2" d="M127.3,21.1V6.3h3.9v1.6c1.4-0.9,3-1.6,4.7-1.9v4c-1.6,0.3-2.9,0.7-4.1,1l-0.6,0.2v9.9
			L127.3,21.1z"/>
		<path id="Path_38" class="st2" d="M142.3,17.3c0.6,0.4,1.3,0.7,2,0.6c1.8,0,3.4-0.1,4.9-0.2l0.8-0.1l0.1,2.9c-2,0.5-4,0.8-6.1,0.8
			c-2.2,0-3.8-0.6-4.8-1.8s-1.5-3.1-1.5-5.8c0-5.3,2.2-8,6.5-8c4.3,0,6.4,2.2,6.4,6.7l-0.3,2.8h-8.6
			C141.5,16.1,141.8,16.8,142.3,17.3z M146.6,12.4c0.1-0.9-0.1-1.7-0.6-2.5c-0.5-0.5-1.2-0.8-2-0.7c-0.7-0.1-1.5,0.2-2,0.7
			c-0.5,0.7-0.7,1.6-0.6,2.4L146.6,12.4z"/>
	</g>
	<path id="Path_39" class="st3" d="M0,0h4.3v41.8H0V0z"/>
</g>
</svg>
